<svg width="118" height="20" viewBox="0 0 118 20" fill="none" xmlns="http://www.w3.org/2000/svg">
<path d="M34.3457 8.43532C34.3457 8.31532 34.3457 8.20532 34.3457 8.08532C34.0837 6.15513 33.3064 4.3312 32.0957 2.80532C31.4756 1.99427 30.7006 1.31446 29.8157 0.80532C28.5453 0.0850358 27.0612 -0.162908 25.6257 0.10532C24.5768 0.294558 23.5809 0.707227 22.7057 1.31532C21.7845 1.9385 20.9447 2.67418 20.2057 3.50532C19.5057 4.28532 18.8157 5.08532 18.1257 5.88532C17.9657 6.07532 17.8057 6.26532 17.6357 6.44532L17.2157 6.94532L17.0057 6.74532C16.6357 6.29532 16.2657 5.84532 15.8857 5.40532C15.0988 4.42549 14.2575 3.49068 13.3657 2.60532C12.6266 1.86378 11.7886 1.22778 10.8757 0.71532C9.62976 0.0369027 8.17978 -0.165667 6.79566 0.14532C5.69474 0.394747 4.66739 0.898148 3.79566 1.61532C2.47013 2.72734 1.43964 4.14942 0.795659 5.75532C0.144647 7.26288 -0.113397 8.91092 0.0456591 10.5453C0.203321 12.2315 0.743706 13.8595 1.62566 15.3053C2.16918 16.2445 2.89306 17.067 3.75566 17.7253C4.21073 18.0706 4.70396 18.3626 5.22566 18.5953C5.9928 18.9272 6.8198 19.0984 7.65566 19.0984C8.49152 19.0984 9.31851 18.9272 10.0857 18.5953C11.0627 18.18 11.9622 17.6017 12.7457 16.8853C13.5518 16.1867 14.3071 15.4315 15.0057 14.6253C15.6757 13.8553 16.3457 13.0953 17.0057 12.3353C17.0057 12.2753 17.1157 12.2253 17.2057 12.1353C17.2541 12.2089 17.3076 12.2791 17.3657 12.3453C17.6257 12.6353 17.8757 12.9353 18.1357 13.2353L18.9757 14.2353C19.7084 15.118 20.4896 15.9593 21.3157 16.7553C21.7252 17.151 22.1667 17.5122 22.6357 17.8353C22.955 18.0668 23.289 18.2773 23.6357 18.4653C24.3227 18.8452 25.083 19.0737 25.8657 19.1353C27.1684 19.2127 28.4635 18.888 29.5757 18.2053C30.7832 17.4966 31.8101 16.5177 32.5757 15.3453C33.9739 13.3282 34.602 10.8763 34.3457 8.43532ZM14.7057 9.59532C13.5957 10.7853 12.5057 11.9853 11.3857 13.1753C10.8448 13.751 10.241 14.2643 9.58566 14.7053C9.26414 14.9419 8.90608 15.1243 8.52566 15.2453L8.31566 15.3053C7.83523 15.3979 7.3378 15.3348 6.89566 15.1253C6.34091 14.8687 5.85443 14.485 5.47566 14.0053C4.67557 13.0289 4.14468 11.8603 3.93566 10.6153C3.71196 9.24347 3.9512 7.83618 4.61566 6.61532C5.00024 5.78016 5.57161 5.04456 6.28566 4.46532C6.6921 4.12934 7.17731 3.90222 7.69566 3.80532C8.2078 3.73064 8.73062 3.79989 9.20566 4.00532C9.79192 4.25125 10.3354 4.5888 10.8157 5.00532C11.5125 5.61496 12.155 6.28416 12.7357 7.00532C13.4057 7.83532 14.0657 8.67532 14.7357 9.51532C14.7157 9.56532 14.7157 9.58532 14.7057 9.59532ZM28.7057 14.1953C28.47 14.4387 28.2122 14.6597 27.9357 14.8553C27.5639 15.1238 27.1287 15.2908 26.6728 15.3399C26.2169 15.389 25.756 15.3185 25.3357 15.1353C24.7404 14.8891 24.1872 14.5517 23.6957 14.1353C22.9735 13.5265 22.3045 12.8574 21.6957 12.1353L20.5857 10.7753L19.7357 9.71532V9.64532L20.5957 8.64532L20.7357 8.48532C21.5357 7.56532 22.3157 6.63532 23.1857 5.78532C23.6895 5.27477 24.246 4.8189 24.8457 4.42532C25.1968 4.16312 25.5887 3.96042 26.0057 3.82532C26.6056 3.69815 27.2314 3.79415 27.7657 4.09532C28.2504 4.3641 28.6729 4.73211 29.0057 5.17532C29.9962 6.39988 30.5489 7.92051 30.5757 9.49532C30.5794 10.216 30.4506 10.9312 30.1957 11.6053C30.1957 11.6053 30.1957 11.6053 30.1957 11.6653C29.8729 12.6063 29.3549 13.4685 28.6757 14.1953H28.7057Z" fill="#4285F4"/>
<path d="M11.2256 9.00531L12.8456 8.66531L12.6956 8.60531L9.19563 7.85531C9.01108 7.81557 8.82019 7.81557 8.63563 7.85531C7.63563 8.05531 6.63563 8.26531 5.63563 8.48531L4.77563 8.67531L5.36563 8.79531V10.1053L5.54563 10.2653L5.72563 10.1053V8.83531L6.28563 9.00531H6.40563V9.84531C6.40563 10.0853 6.40563 10.3153 6.40563 10.5353C6.39693 10.6138 6.41359 10.6931 6.45317 10.7615C6.49276 10.8299 6.5532 10.8838 6.62563 10.9153C6.83477 11.0144 7.05229 11.0947 7.27563 11.1553C8.17672 11.3484 9.10586 11.3721 10.0156 11.2253C10.3573 11.151 10.6919 11.0473 11.0156 10.9153C11.0703 10.8913 11.1181 10.854 11.1548 10.8068C11.1914 10.7597 11.2158 10.7042 11.2256 10.6453C11.2256 10.1653 11.2256 9.64531 11.2256 9.17531V9.00531Z" fill="#2A58B8"/>
<path d="M26.0056 10.0053L27.3856 12.6953H26.3856C26.3856 12.6953 26.2856 12.6253 26.2556 12.5653C25.8656 11.7853 25.4756 11.0053 25.0956 10.2153C25.1002 10.1755 25.0943 10.1352 25.0786 10.0983C25.0628 10.0615 25.0376 10.0294 25.0056 10.0053H24.3156V9.20531H25.5456C25.7 9.21379 25.8517 9.16237 25.969 9.06177C26.0864 8.96117 26.1604 8.81915 26.1756 8.66531H24.3256V8.00531H26.2356C26.2356 7.48531 25.9456 7.24531 25.4656 7.24531H24.3256V6.44531H28.0556V7.05531H26.8956C27.0033 7.20504 27.0876 7.37026 27.1456 7.54531C27.184 7.69569 27.2041 7.85013 27.2056 8.00531H28.0556V8.62531H27.1456C27.1135 8.94233 26.988 9.24268 26.7851 9.48834C26.5822 9.734 26.3109 9.91392 26.0056 10.0053Z" fill="#2A58B8"/>
<path d="M17.2356 12.1353L14.7356 9.53531L17.2156 6.94531L19.6856 9.56531L17.2356 12.1353Z" fill="#2A58B8"/>
<path d="M45.1957 8.79419C44.8812 8.60807 44.5454 8.46034 44.1957 8.35419L43.0057 8.05419L42.0057 7.78419C41.7296 7.71216 41.4733 7.57886 41.2557 7.39419C41.1611 7.31508 41.0858 7.2154 41.0355 7.10275C40.9852 6.9901 40.9614 6.86747 40.9657 6.74419C40.9613 6.521 41.0317 6.30274 41.1657 6.12419C41.3319 5.92531 41.55 5.77645 41.7957 5.69419C42.1522 5.56999 42.5284 5.51236 42.9057 5.52419C43.3188 5.52728 43.7294 5.58786 44.1257 5.70419C44.5627 5.81953 44.9804 5.99809 45.3657 6.23419L45.8657 4.91419C45.4441 4.64446 44.9814 4.44518 44.4957 4.32419C43.9724 4.19316 43.4352 4.12601 42.8957 4.12419C42.2113 4.10429 41.5302 4.22689 40.8957 4.48419C40.4126 4.69431 40.0022 5.04213 39.7157 5.48419C39.4512 5.87756 39.3086 6.34019 39.3057 6.81419C39.2894 7.22381 39.39 7.62961 39.5957 7.98419C39.7891 8.28578 40.0491 8.53896 40.3557 8.72419C40.6703 8.91032 41.006 9.05804 41.3557 9.16419C41.7357 9.28419 42.1157 9.38419 42.4957 9.46419C42.8657 9.55419 43.2157 9.64419 43.4957 9.74419C43.7742 9.81794 44.0334 9.95098 44.2557 10.1342C44.3506 10.2153 44.4259 10.3168 44.4761 10.4311C44.5263 10.5453 44.5501 10.6695 44.5457 10.7942C44.5436 11.0071 44.4735 11.2138 44.3457 11.3842C44.1746 11.5777 43.953 11.7196 43.7057 11.7942C43.3403 11.9086 42.9586 11.9627 42.5757 11.9542C42.0407 11.9467 41.5104 11.8521 41.0057 11.6742C40.5275 11.5095 40.0786 11.2699 39.6757 10.9642L39.1057 12.2542C39.5551 12.6111 40.0722 12.873 40.6257 13.0242C41.273 13.2265 41.9476 13.3277 42.6257 13.3242C43.3101 13.3441 43.9912 13.2215 44.6257 12.9642C45.1131 12.7568 45.5275 12.4086 45.8157 11.9642C46.0734 11.5725 46.2092 11.1131 46.2057 10.6442C46.2196 10.238 46.1191 9.83607 45.9157 9.48419C45.7355 9.19895 45.4884 8.96208 45.1957 8.79419Z" fill="#1F2125"/>
<path d="M54.5257 6.39419H52.6157L49.3157 9.44419V3.74419H47.7257V13.1942H49.3157V11.4042L50.5057 10.2842L52.8657 13.1942H54.7957L51.6957 9.24419L54.5257 6.39419Z" fill="#1F2125"/>
<path d="M56.6157 3.36419C56.4822 3.35812 56.3488 3.37888 56.2234 3.42526C56.098 3.47163 55.9832 3.54268 55.8857 3.63419C55.7937 3.72197 55.7205 3.82749 55.6705 3.94437C55.6205 4.06125 55.5947 4.18706 55.5947 4.31419C55.5947 4.44133 55.6205 4.56714 55.6705 4.68402C55.7205 4.8009 55.7937 4.90642 55.8857 4.99419C55.9823 5.0875 56.0968 5.16039 56.2222 5.20849C56.3476 5.2566 56.4815 5.27895 56.6157 5.27419C56.7523 5.279 56.8885 5.25575 57.0158 5.20587C57.143 5.15599 57.2587 5.08054 57.3557 4.98419C57.4482 4.89316 57.5208 4.78397 57.569 4.66349C57.6172 4.54302 57.6399 4.41388 57.6357 4.28419C57.6406 4.16034 57.6181 4.03693 57.5697 3.92282C57.5213 3.80871 57.4482 3.70673 57.3557 3.62419C57.1503 3.44785 56.8862 3.35506 56.6157 3.36419Z" fill="#1F2125"/>
<path d="M57.4057 6.39419H55.8157V13.1942H57.4057V6.39419Z" fill="#1F2125"/>
<path d="M61.0857 3.74419H59.4957V13.1942H61.0857V3.74419Z" fill="#1F2125"/>
<path d="M64.7657 3.74419H63.1757V13.1942H64.7657V3.74419Z" fill="#1F2125"/>
<path d="M67.3757 11.1742C67.2391 11.1694 67.1029 11.1926 66.9757 11.2425C66.8484 11.2924 66.7327 11.3678 66.6357 11.4642C66.5319 11.5629 66.4505 11.6827 66.3971 11.8155C66.3436 11.9484 66.3192 12.0911 66.3257 12.2342C66.3221 12.3739 66.3478 12.5129 66.4012 12.6421C66.4546 12.7712 66.5345 12.8878 66.6357 12.9842C66.832 13.1766 67.0959 13.2843 67.3707 13.2843C67.6456 13.2843 67.9094 13.1766 68.1057 12.9842C68.2069 12.8878 68.2868 12.7712 68.3402 12.6421C68.3936 12.5129 68.4193 12.3739 68.4157 12.2342C68.4222 12.0911 68.3979 11.9484 68.3444 11.8155C68.2909 11.6827 68.2095 11.5629 68.1057 11.4642C68.0099 11.3691 67.8958 11.2944 67.7704 11.2445C67.6449 11.1947 67.5107 11.1708 67.3757 11.1742Z" fill="#1F2125"/>
<path d="M71.7957 6.48419C72.0822 6.20278 72.4222 5.98175 72.7957 5.83419C73.2043 5.67846 73.6385 5.60046 74.0757 5.60419C74.5211 5.58941 74.9643 5.67113 75.3752 5.84374C75.786 6.01635 76.1546 6.27576 76.4557 6.60419L77.5257 5.60419C77.1112 5.12948 76.5904 4.75942 76.0057 4.52419C75.3702 4.26939 74.6903 4.14361 74.0057 4.15419C73.3565 4.14555 72.7116 4.26095 72.1057 4.49419C71.5405 4.72297 71.027 5.06304 70.5957 5.49419C70.1667 5.90793 69.8265 6.40469 69.5957 6.95419C69.3544 7.53711 69.2352 8.16337 69.2457 8.79419C69.236 9.42171 69.3552 10.0445 69.5957 10.6242C69.826 11.174 70.1663 11.6708 70.5957 12.0842C71.029 12.5175 71.5462 12.8578 72.1157 13.0842C72.7184 13.3167 73.3598 13.432 74.0057 13.4242C74.6999 13.3901 75.38 13.2166 76.0057 12.9142C76.5971 12.6717 77.1217 12.2911 77.5357 11.8042L76.4657 10.8042C76.167 11.145 75.7988 11.4178 75.3857 11.6042C74.9746 11.7784 74.5322 11.8669 74.0857 11.8642C73.6485 11.8679 73.2143 11.7899 72.8057 11.6342C72.4322 11.4866 72.0922 11.2656 71.8057 10.9842C71.5222 10.6974 71.2979 10.3576 71.1457 9.98419C70.8253 9.17129 70.8253 8.2671 71.1457 7.45419C71.2983 7.09225 71.519 6.76297 71.7957 6.48419Z" fill="#1F2125"/>
<path d="M83.5457 6.76419C82.9672 6.45757 82.3204 6.30274 81.6657 6.31419C81.0173 6.30172 80.3767 6.45671 79.8057 6.76419C79.2644 7.05347 78.8135 7.48674 78.5029 8.01615C78.1923 8.54556 78.0341 9.15051 78.0457 9.76419C78.0371 10.3956 78.1995 11.0176 78.5157 11.5642C78.8277 12.085 79.273 12.5131 79.8057 12.8042C80.3767 13.1117 81.0173 13.2667 81.6657 13.2542C82.3204 13.2656 82.9672 13.1108 83.5457 12.8042C84.0805 12.5159 84.5265 12.0872 84.8357 11.5642C85.1439 11.0148 85.3025 10.3941 85.2957 9.76419C85.3067 9.13062 85.1478 8.50566 84.8357 7.95419C84.5158 7.45266 84.0714 7.04265 83.5457 6.76419ZM83.4257 10.9142C83.2646 11.2269 83.0139 11.4846 82.7057 11.6542C82.3854 11.8183 82.0306 11.9039 81.6707 11.9039C81.3108 11.9039 80.956 11.8183 80.6357 11.6542C80.332 11.4787 80.0828 11.2226 79.9157 10.9142C79.7376 10.561 79.6483 10.1697 79.6557 9.77419C79.6471 9.37857 79.7364 8.98695 79.9157 8.63419C80.0845 8.33221 80.3337 8.08297 80.6357 7.91419C80.956 7.75009 81.3108 7.66451 81.6707 7.66451C82.0306 7.66451 82.3854 7.75009 82.7057 7.91419C83.0132 8.08018 83.264 8.33443 83.4257 8.64419C83.6096 8.99529 83.6992 9.3881 83.6857 9.78419C83.6965 10.1768 83.607 10.5658 83.4257 10.9142Z" fill="#1F2125"/>
<path d="M88.4157 3.74419H86.8257V13.1942H88.4157V3.74419Z" fill="#1F2125"/>
<path d="M92.0957 3.74419H90.5057V13.1942H92.0957V3.74419Z" fill="#1F2125"/>
<path d="M98.9157 6.75419C98.3738 6.45675 97.7639 6.30513 97.1457 6.31419C96.5102 6.30271 95.8827 6.45785 95.3257 6.76419C94.8072 7.05592 94.3758 7.48047 94.0757 7.99419C93.7684 8.54351 93.613 9.16486 93.6257 9.79419C93.6171 10.4256 93.7795 11.0476 94.0957 11.5942C94.4044 12.1246 94.8592 12.555 95.4057 12.8342C96.024 13.1499 96.7118 13.3047 97.4057 13.2842C97.9522 13.2956 98.4956 13.2005 99.0057 13.0042C99.447 12.823 99.8406 12.5424 100.156 12.1842L99.3057 11.1842C99.0838 11.4368 98.8018 11.6294 98.4857 11.7442C98.166 11.8642 97.8272 11.9252 97.4857 11.9242C97.0815 11.9337 96.6807 11.8481 96.3157 11.6742C95.9841 11.5171 95.7085 11.2624 95.5257 10.9442C95.4065 10.745 95.3283 10.524 95.2957 10.2942H100.616C100.622 10.2143 100.622 10.1341 100.616 10.0542C100.62 9.9776 100.62 9.90078 100.616 9.82419C100.631 9.17551 100.476 8.53417 100.166 7.96419C99.8727 7.45016 99.439 7.0304 98.9157 6.75419ZM95.2257 9.24419C95.2481 9.00361 95.316 8.76947 95.4257 8.55419C95.5882 8.26013 95.8264 8.01496 96.1157 7.84419C96.4215 7.67492 96.7663 7.58872 97.1157 7.59419C97.4652 7.58872 97.81 7.67492 98.1157 7.84419C98.4023 8.01407 98.64 8.25522 98.8057 8.54419C98.9218 8.76114 98.9932 8.99917 99.0157 9.24419H95.2257Z" fill="#1F2125"/>
<path d="M107.346 7.34419C107.131 7.06303 106.858 6.83117 106.546 6.66419C106.067 6.42933 105.539 6.30949 105.006 6.31419C104.395 6.30734 103.791 6.44799 103.246 6.72419C102.728 6.99607 102.299 7.40859 102.006 7.91419C101.697 8.43393 101.541 9.02999 101.556 9.63419C101.542 10.2415 101.697 10.8407 102.006 11.3642C102.302 11.8537 102.727 12.2517 103.236 12.5142C103.783 12.7928 104.392 12.9303 105.006 12.9142C105.543 12.9205 106.074 12.8006 106.556 12.5642C106.833 12.4142 107.081 12.2142 107.286 11.9742V12.3642C107.306 12.6449 107.27 12.9269 107.179 13.1933C107.088 13.4596 106.944 13.7048 106.756 13.9142C106.297 14.2924 105.708 14.4755 105.116 14.4242C104.647 14.4261 104.181 14.3518 103.736 14.2042C103.325 14.0817 102.941 13.8814 102.606 13.6142L101.896 14.8142C102.331 15.153 102.831 15.3981 103.366 15.5342C103.966 15.6945 104.585 15.7751 105.206 15.7742C106.193 15.8421 107.17 15.531 107.936 14.9042C108.273 14.5409 108.53 14.1114 108.692 13.6431C108.854 13.1748 108.916 12.678 108.876 12.1842V6.39419H107.356L107.346 7.34419ZM107.006 10.6042C106.83 10.8965 106.577 11.1351 106.276 11.2942C105.946 11.4659 105.578 11.5518 105.206 11.5442C104.831 11.5518 104.459 11.4659 104.126 11.2942C103.821 11.1353 103.565 10.8968 103.386 10.6042C103.219 10.2974 103.131 9.95358 103.131 9.60419C103.131 9.25481 103.219 8.91099 103.386 8.60419C103.56 8.30967 103.818 8.07314 104.126 7.92419C104.463 7.76392 104.833 7.68513 105.206 7.69419C105.585 7.67725 105.962 7.75276 106.306 7.91419C106.611 8.06326 106.865 8.3 107.036 8.59419C107.203 8.90099 107.29 9.24481 107.29 9.59419C107.29 9.94358 107.203 10.2874 107.036 10.5942L107.006 10.6042Z" fill="#1F2125"/>
<path d="M116.906 7.97419C116.618 7.46023 116.192 7.03747 115.676 6.75419C115.135 6.45457 114.524 6.3028 113.906 6.31419C113.273 6.30259 112.649 6.45779 112.096 6.76419C111.575 7.05314 111.143 7.47834 110.846 7.99419C110.538 8.54351 110.383 9.16486 110.396 9.79419C110.384 10.4247 110.543 11.0466 110.856 11.5942C111.167 12.1225 111.621 12.5523 112.166 12.8342C112.785 13.1475 113.472 13.3021 114.166 13.2842C114.709 13.2961 115.249 13.201 115.756 13.0042C116.199 12.8263 116.593 12.5452 116.906 12.1842L116.056 11.1842C115.834 11.4368 115.552 11.6294 115.236 11.7442C114.917 11.866 114.577 11.9271 114.236 11.9242C113.832 11.9337 113.431 11.8481 113.066 11.6742C112.736 11.514 112.461 11.26 112.276 10.9442C112.161 10.7431 112.083 10.5229 112.046 10.2942H117.376C117.376 10.2242 117.376 10.1442 117.376 10.0542V9.82419C117.378 9.17769 117.216 8.54115 116.906 7.97419ZM112.006 9.24419C112.036 9.00397 112.107 8.77066 112.216 8.55419C112.375 8.258 112.614 8.01213 112.906 7.84419C113.211 7.67492 113.556 7.58872 113.906 7.59419C114.255 7.58872 114.6 7.67492 114.906 7.84419C115.192 8.01407 115.43 8.25522 115.596 8.54419C115.712 8.76114 115.783 8.99917 115.806 9.24419H112.006Z" fill="#1F2125"/>
</svg>
